Coordinates
version=1
nRows=10
nColumns=40
inDegrees=yes

Units are S.I. units (second, meters, Newtons, ...)
Angles are in degrees.

endheader
time	pelvis_tilt	pelvis_list	pelvis_rotation	pelvis_tx	pelvis_ty	pelvis_tz	hip_flexion_r	hip_adduction_r	hip_rotation_r	knee_angle_r	knee_angle_r_beta	ankle_angle_r	subtalar_angle_r	mtp_angle_r	hip_flexion_l	hip_adduction_l	hip_rotation_l	knee_angle_l	knee_angle_l_beta	ankle_angle_l	subtalar_angle_l	mtp_angle_l	lumbar_extension	lumbar_bending	lumbar_rotation	arm_flex_r	arm_add_r	arm_rot_r	elbow_flex_r	pro_sup_r	wrist_flex_r	wrist_dev_r	arm_flex_l	arm_add_l	arm_rot_l	elbow_flex_l	pro_sup_l	wrist_flex_l	wrist_dev_l
     53.17778571	     -7.03104458	     -5.99709633	      3.87590695	      0.89870372	      0.91907528	      0.47276837	      5.60668307	      4.37863728	    -13.59818690	     13.35598268	     13.35598268	     16.63564699	      1.30991740	     -2.50419181	     33.11736228	     -6.65836549	      0.66560791	     20.98625115	     20.98625115	      3.30905105	    -10.67575044	      6.10156217	     -9.58314450	      5.75228409	      2.92705505	     49.10454678	    -13.65557157	      3.45781465	    108.61840759	     44.02034169	      0.00000000	      0.00000000	    -13.28841409	     -6.99966693	      5.01214429	     27.32255782	     44.83012038	      0.00000000	      0.00000000
     53.19057143	     -7.09614572	     -6.07694307	      3.69167990	      0.89999123	      0.91817216	      0.47108323	      5.10850703	      4.38152677	    -13.40301826	     13.32010503	     13.32010503	     16.94437785	      1.43704555	     -2.53159078	     32.63596562	     -6.69915987	      0.65056360	     21.41203945	     21.41203945	      3.11887053	    -10.89008883	      6.04682514	     -9.25360937	      5.74113526	      3.06415068	     48.91946481	    -13.43833324	      3.56750981	    108.77042111	     44.01461702	      0.00000000	      0.00000000	    -13.51011824	     -7.02847215	      5.03648282	     27.28048591	     44.82452024	      0.00000000	      0.00000000
     53.20335714	     -7.07157337	     -6.18513760	      3.60214954	      0.90128547	      0.91755742	      0.46919900	      4.48686014	      4.39001645	    -13.43161724	     13.25958095	     13.25958095	     17.55759523	      1.91236301	     -1.43263997	     32.07106107	     -6.68464904	      0.90442358	     21.69294648	     21.69294648	      2.38774219	    -11.63615627	      4.51622268	     -9.10364955	      5.78095076	      3.17818604	     48.35549213	    -13.41955170	      3.70513711	    109.86507710	     44.03450135	      0.00000000	      0.00000000	    -13.70218922	     -7.16343387	      5.48701450	     27.94828422	     44.78695688	      0.00000000	      0.00000000
     53.21614286	     -7.13380570	     -6.18843847	      3.49408887	      0.90235576	      0.91704300	      0.46721620	      4.08248214	      4.26388246	    -13.27148096	     13.36869993	     13.36869993	     17.77604515	      1.92623523	     -1.47485549	     31.67366719	     -6.59965669	      0.97845704	     22.06868387	     22.06868387	      2.55768689	    -11.82979132	      4.37663040	     -8.84688347	      5.73492999	      3.14395222	     47.97195979	    -13.27022057	      3.81849942	    109.87143416	     44.03095886	      0.00000000	      0.00000000	    -13.58967036	     -7.18319723	      5.50156488	     27.97941499	     44.78798864	      0.00000000	      0.00000000
     53.22892857	     -7.06451680	     -6.16993304	      3.39762099	      0.90328284	      0.91690787	      0.46520211	      3.67694650	      4.08528557	    -13.13391881	     13.71702596	     13.71702596	     17.91521288	      1.83796219	     -1.43399064	     31.34220800	     -6.49389815	      1.09993675	     22.72338702	     22.72338702	      2.78204113	    -12.27518478	      4.12533212	     -8.80707850	      5.58233415	      3.05916671	     47.07322831	    -13.02247358	      4.04188226	    109.90583994	     44.02338841	      0.00000000	      0.00000000	    -13.36242714	     -7.24917238	      5.52981090	     28.03252247	     44.79062724	      0.00000000	      0.00000000
     53.24171429	     -7.03992444	     -6.13447712	      3.31836288	      0.90401995	      0.91697395	      0.46301849	      3.45981741	      3.84451350	    -12.97751211	     14.29405043	     14.29405043	     18.03486285	      1.63191809	     -1.39751428	     31.04016464	     -6.34003291	      1.26826439	     23.25202746	     23.25202746	      3.14397875	    -12.71196578	      3.85102979	     -8.75556185	      5.45428668	      2.94590104	     46.14639743	    -12.87249281	      4.22500982	    109.90938889	     44.01826102	      0.00000000	      0.00000000	    -12.95919394	     -7.31386239	      5.55564008	     28.13451730	     44.79674785	      0.00000000	      0.00000000
     53.25450000	     -7.17774395	     -6.02545306	      3.19065610	      0.90431650	      0.91700484	      0.46074218	      3.84278536	      3.43265354	    -12.63854643	     15.62992475	     15.62992475	     18.31487729	      0.96813502	     -1.13565062	     30.90293555	     -6.07202468	      1.49077547	     23.68336467	     23.68336467	      3.43962130	    -13.39090587	      3.60373106	     -8.57776303	      5.23578981	      3.06014436	     44.99292749	    -13.03529337	      4.21087247	    110.05956239	     44.02842057	      0.00000000	      0.00000000	    -12.28192893	     -7.40711753	      5.67954076	     28.13944630	     44.80335399	      0.00000000	      0.00000000
     53.26728571	     -7.12366683	     -5.92514949	      3.06671761	      0.90473429	      0.91758048	      0.45837731	      3.98621856	      3.03045301	    -12.38420727	     16.88647897	     16.88647897	     18.36557987	      0.49155179	     -1.16902035	     30.54521204	     -5.87137505	      1.51117059	     24.09216367	     24.09216367	      3.95459304	    -13.76004883	      3.39317127	     -8.62504253	      5.05186065	      3.04341686	     43.72554462	    -13.05063178	      4.32893771	    109.75962929	     44.03824048	      0.00000000	      0.00000000	    -11.54900529	     -7.51108634	      5.73628299	     28.21731114	     44.81411694	      0.00000000	      0.00000000
     53.28007143	     -7.13128037	     -5.82806536	      2.93762521	      0.90486981	      0.91820301	      0.45595950	      4.50355300	      2.57185231	    -12.07336028	     18.66307658	     18.66307658	     18.32262017	     -0.27810532	     -1.35722955	     30.22455992	     -5.66273266	      1.51789290	     24.39601437	     24.39601437	      4.50504552	    -14.06169724	      3.31213488	     -8.63835750	      4.87700328	      3.11862408	     42.37745380	    -13.16792566	      4.36798361	    109.23808474	     44.06114015	      0.00000000	      0.00000000	    -10.59457758	     -7.60854613	      5.82537431	     28.23794578	     44.82696964	      0.00000000	      0.00000000
     53.29285714	     -7.11372019	     -5.70667157	      2.76103384	      0.90492002	      0.91896569	      0.45352777	      5.19061929	      2.05082893	    -11.72821754	     20.77043077	     20.77043077	     18.12532893	     -1.13962034	     -1.78417814	     29.82542665	     -5.46944078	      1.38547483	     24.61990944	     24.61990944	      5.07557427	    -14.22838622	      3.26114306	     -8.68037008	      4.66929868	      3.18476719	     40.93712397	    -13.27796061	      4.45014738	    108.44130495	     44.08892289	      0.00000000	      0.00000000	     -9.56461196	     -7.70471894	      5.89344828	     28.30546463	     44.84281435	      0.00000000	      0.00000000
